<svg width="180" height="40" viewBox="0 0 180 40" fill="none" xmlns="http://www.w3.org/2000/svg">
<path d="M45.1378 27V13.9091H47.8608V18.831H47.9439C48.0632 18.5668 48.2358 18.2983 48.4616 18.0256C48.6918 17.7486 48.9901 17.5185 49.3565 17.3352C49.7273 17.1477 50.1875 17.054 50.7372 17.054C51.4531 17.054 52.1136 17.2415 52.7188 17.6165C53.3239 17.9872 53.8075 18.5476 54.1697 19.2976C54.532 20.0433 54.7131 20.9787 54.7131 22.1037C54.7131 23.1989 54.5362 24.1236 54.1825 24.8778C53.8331 25.6278 53.3558 26.1967 52.7507 26.5845C52.1499 26.968 51.4766 27.1598 50.7308 27.1598C50.2024 27.1598 49.7528 27.0724 49.3821 26.8977C49.0156 26.723 48.7152 26.5036 48.4808 26.2393C48.2464 25.9709 48.0675 25.7003 47.9439 25.4276H47.8224V27H45.1378ZM47.8033 22.0909C47.8033 22.6747 47.8842 23.1839 48.0462 23.6186C48.2081 24.0533 48.4425 24.392 48.7493 24.6349C49.0561 24.8736 49.429 24.9929 49.8679 24.9929C50.3111 24.9929 50.6861 24.8714 50.9929 24.6286C51.2997 24.3814 51.532 24.0405 51.6896 23.6058C51.8516 23.1669 51.9325 22.6619 51.9325 22.0909C51.9325 21.5241 51.8537 21.0256 51.696 20.5952C51.5384 20.1648 51.3061 19.8281 50.9993 19.5852C50.6925 19.3423 50.3153 19.2209 49.8679 19.2209C49.4247 19.2209 49.0497 19.3381 48.7429 19.5724C48.4403 19.8068 48.2081 20.1392 48.0462 20.5696C47.8842 21 47.8033 21.5071 47.8033 22.0909ZM59.7444 27.1918C58.7345 27.1918 57.8652 26.9872 57.1365 26.5781C56.4121 26.1648 55.8538 25.581 55.4618 24.8267C55.0697 24.0682 54.8737 23.1712 54.8737 22.1357C54.8737 21.1257 55.0697 20.2393 55.4618 19.4766C55.8538 18.7138 56.4057 18.1193 57.1173 17.6932C57.8332 17.267 58.6727 17.054 59.6358 17.054C60.2835 17.054 60.8865 17.1584 61.4447 17.3672C62.0072 17.5717 62.4973 17.8807 62.9149 18.294C63.3368 18.7074 63.6649 19.2273 63.8993 19.8537C64.1336 20.4759 64.2508 21.2045 64.2508 22.0398V22.7876H55.9603V21.1001H61.6876C61.6876 20.7081 61.6024 20.3608 61.4319 20.0582C61.2615 19.7557 61.025 19.5192 60.7224 19.3487C60.4241 19.174 60.0768 19.0866 59.6805 19.0866C59.2672 19.0866 58.9007 19.1825 58.5811 19.3743C58.2657 19.5618 58.0186 19.8153 57.8396 20.1349C57.6606 20.4503 57.569 20.8018 57.5648 21.1896V22.794C57.5648 23.2798 57.6542 23.6996 57.8332 24.0533C58.0165 24.407 58.2743 24.6797 58.6067 24.8714C58.939 25.0632 59.3332 25.1591 59.7892 25.1591C60.0917 25.1591 60.3687 25.1165 60.6201 25.0312C60.8716 24.946 61.0868 24.8182 61.2657 24.6477C61.4447 24.4773 61.5811 24.2685 61.6748 24.0213L64.1933 24.1875C64.0655 24.7926 63.8034 25.321 63.4071 25.7727C63.015 26.2202 62.5079 26.5696 61.8858 26.821C61.2679 27.0682 60.5541 27.1918 59.7444 27.1918ZM67.4908 21.3239V27H64.7678V17.1818H67.363V18.9141H67.478C67.6954 18.343 68.0597 17.8913 68.5711 17.5589C69.0824 17.2223 69.7025 17.054 70.4312 17.054C71.113 17.054 71.7074 17.2031 72.2146 17.5014C72.7217 17.7997 73.1158 18.2259 73.3971 18.7798C73.6783 19.3295 73.819 19.9858 73.819 20.7486V27H71.0959V21.2344C71.1002 20.6335 70.9468 20.1648 70.6357 19.8281C70.3246 19.4872 69.8964 19.3168 69.3509 19.3168C68.9844 19.3168 68.6606 19.3956 68.3793 19.5533C68.1023 19.7109 67.885 19.9411 67.7273 20.2436C67.5739 20.5419 67.4951 20.902 67.4908 21.3239ZM79.9274 17.1818V19.2273H74.0147V17.1818H79.9274ZM75.3571 14.8295H78.0801V23.983C78.0801 24.2344 78.1184 24.4304 78.1951 24.571C78.2718 24.7074 78.3784 24.8033 78.5147 24.8587C78.6554 24.9141 78.8173 24.9418 79.0005 24.9418C79.1284 24.9418 79.2562 24.9311 79.3841 24.9098C79.5119 24.8842 79.6099 24.8651 79.6781 24.8523L80.1064 26.8786C79.97 26.9212 79.7782 26.9702 79.5311 27.0256C79.2839 27.0852 78.9835 27.1214 78.6298 27.1342C77.9736 27.1598 77.3983 27.0724 76.9039 26.8722C76.4139 26.6719 76.0325 26.3608 75.7598 25.9389C75.487 25.517 75.3528 24.9844 75.3571 24.3409V14.8295ZM83.3751 21.3239V27H80.6521V13.9091H83.2984V18.9141H83.4135C83.6351 18.3345 83.993 17.8807 84.4873 17.5526C84.9817 17.2202 85.6017 17.054 86.3474 17.054C87.0292 17.054 87.6237 17.2031 88.1308 17.5014C88.6422 17.7955 89.0385 18.2195 89.3197 18.7734C89.6052 19.3232 89.7459 19.9815 89.7416 20.7486V27H87.0186V21.2344C87.0229 20.6293 86.8694 20.1584 86.5584 19.8217C86.2515 19.4851 85.8211 19.3168 85.2672 19.3168C84.8964 19.3168 84.5683 19.3956 84.2828 19.5533C84.0015 19.7109 83.78 19.9411 83.618 20.2436C83.4604 20.5419 83.3794 20.902 83.3751 21.3239ZM96.9207 22.8196V17.1818H99.6437V27H97.0294V25.2166H96.9271C96.7055 25.7919 96.3369 26.2543 95.8213 26.6037C95.3099 26.9531 94.6856 27.1278 93.9484 27.1278C93.2922 27.1278 92.7147 26.9787 92.2162 26.6804C91.7176 26.3821 91.3277 25.9581 91.0464 25.4084C90.7694 24.8587 90.6288 24.2003 90.6245 23.4332V17.1818H93.3476V22.9474C93.3518 23.527 93.5074 23.9851 93.8142 24.3217C94.121 24.6584 94.5322 24.8267 95.0478 24.8267C95.376 24.8267 95.6828 24.7521 95.9683 24.603C96.2538 24.4496 96.4839 24.2237 96.6586 23.9254C96.8376 23.6271 96.925 23.2585 96.9207 22.8196ZM102.243 30.6818C101.898 30.6818 101.574 30.6541 101.271 30.5987C100.973 30.5476 100.726 30.4815 100.53 30.4006L101.143 28.3679C101.463 28.4659 101.751 28.5192 102.006 28.5277C102.266 28.5362 102.49 28.4766 102.678 28.3487C102.869 28.2209 103.025 28.0036 103.144 27.6967L103.304 27.2812L99.782 17.1818H102.646L104.678 24.392H104.781L106.832 17.1818H109.715L105.899 28.0611C105.716 28.5895 105.467 29.0497 105.151 29.4418C104.84 29.8381 104.446 30.1428 103.969 30.3558C103.491 30.5732 102.916 30.6818 102.243 30.6818ZM112.572 21.3239V27H109.849V17.1818H112.444V18.9141H112.559C112.776 18.343 113.141 17.8913 113.652 17.5589C114.163 17.2223 114.783 17.054 115.512 17.054C116.194 17.054 116.788 17.2031 117.295 17.5014C117.803 17.7997 118.197 18.2259 118.478 18.7798C118.759 19.3295 118.9 19.9858 118.9 20.7486V27H116.177V21.2344C116.181 20.6335 116.028 20.1648 115.717 19.8281C115.405 19.4872 114.977 19.3168 114.432 19.3168C114.065 19.3168 113.741 19.3956 113.46 19.5533C113.183 19.7109 112.966 19.9411 112.808 20.2436C112.655 20.5419 112.576 20.902 112.572 21.3239ZM124.222 27.1918C123.229 27.1918 122.37 26.9808 121.646 26.5589C120.926 26.1328 120.37 25.5405 119.978 24.782C119.586 24.0192 119.39 23.1349 119.39 22.1293C119.39 21.1151 119.586 20.2287 119.978 19.4702C120.37 18.7074 120.926 18.1151 121.646 17.6932C122.37 17.267 123.229 17.054 124.222 17.054C125.215 17.054 126.071 17.267 126.792 17.6932C127.516 18.1151 128.074 18.7074 128.466 19.4702C128.858 20.2287 129.054 21.1151 129.054 22.1293C129.054 23.1349 128.858 24.0192 128.466 24.782C128.074 25.5405 127.516 26.1328 126.792 26.5589C126.071 26.9808 125.215 27.1918 124.222 27.1918ZM124.235 25.0824C124.687 25.0824 125.064 24.9545 125.366 24.6989C125.669 24.4389 125.897 24.0852 126.05 23.6378C126.208 23.1903 126.287 22.6811 126.287 22.1101C126.287 21.5391 126.208 21.0298 126.05 20.5824C125.897 20.1349 125.669 19.7812 125.366 19.5213C125.064 19.2614 124.687 19.1314 124.235 19.1314C123.779 19.1314 123.395 19.2614 123.084 19.5213C122.777 19.7812 122.545 20.1349 122.388 20.5824C122.234 21.0298 122.157 21.5391 122.157 22.1101C122.157 22.6811 122.234 23.1903 122.388 23.6378C122.545 24.0852 122.777 24.4389 123.084 24.6989C123.395 24.9545 123.779 25.0824 124.235 25.0824ZM129.565 27V17.1818H132.288V27H129.565ZM130.933 15.9162C130.528 15.9162 130.181 15.782 129.891 15.5135C129.605 15.2408 129.463 14.9148 129.463 14.5355C129.463 14.1605 129.605 13.8388 129.891 13.5703C130.181 13.2976 130.528 13.1612 130.933 13.1612C131.338 13.1612 131.683 13.2976 131.968 13.5703C132.258 13.8388 132.403 14.1605 132.403 14.5355C132.403 14.9148 132.258 15.2408 131.968 15.5135C131.683 15.782 131.338 15.9162 130.933 15.9162ZM136.827 27.1598C136.081 27.1598 135.406 26.968 134.801 26.5845C134.2 26.1967 133.723 25.6278 133.369 24.8778C133.02 24.1236 132.845 23.1989 132.845 22.1037C132.845 20.9787 133.026 20.0433 133.388 19.2976C133.75 18.5476 134.232 17.9872 134.833 17.6165C135.438 17.2415 136.101 17.054 136.821 17.054C137.371 17.054 137.829 17.1477 138.195 17.3352C138.566 17.5185 138.864 17.7486 139.09 18.0256C139.32 18.2983 139.495 18.5668 139.614 18.831H139.697V13.9091H142.414V27H139.729V25.4276H139.614C139.486 25.7003 139.305 25.9709 139.071 26.2393C138.841 26.5036 138.54 26.723 138.17 26.8977C137.803 27.0724 137.356 27.1598 136.827 27.1598ZM137.69 24.9929C138.129 24.9929 138.5 24.8736 138.802 24.6349C139.109 24.392 139.344 24.0533 139.505 23.6186C139.672 23.1839 139.755 22.6747 139.755 22.0909C139.755 21.5071 139.674 21 139.512 20.5696C139.35 20.1392 139.116 19.8068 138.809 19.5724C138.502 19.3381 138.129 19.2209 137.69 19.2209C137.243 19.2209 136.866 19.3423 136.559 19.5852C136.252 19.8281 136.02 20.1648 135.862 20.5952C135.704 21.0256 135.625 21.5241 135.625 22.0909C135.625 22.6619 135.704 23.1669 135.862 23.6058C136.024 24.0405 136.256 24.3814 136.559 24.6286C136.866 24.8714 137.243 24.9929 137.69 24.9929ZM143.393 27V17.1818H146.116V27H143.393ZM144.761 15.9162C144.356 15.9162 144.008 15.782 143.719 15.5135C143.433 15.2408 143.29 14.9148 143.29 14.5355C143.29 14.1605 143.433 13.8388 143.719 13.5703C144.008 13.2976 144.356 13.1612 144.761 13.1612C145.165 13.1612 145.511 13.2976 145.796 13.5703C146.086 13.8388 146.231 14.1605 146.231 14.5355C146.231 14.9148 146.086 15.2408 145.796 15.5135C145.511 15.782 145.165 15.9162 144.761 15.9162ZM149.837 27.1854C149.21 27.1854 148.652 27.0767 148.162 26.8594C147.672 26.6378 147.284 26.3118 146.999 25.8814C146.717 25.4467 146.577 24.9055 146.577 24.2578C146.577 23.7124 146.677 23.2543 146.877 22.8835C147.077 22.5128 147.35 22.2145 147.695 21.9886C148.041 21.7628 148.433 21.5923 148.871 21.4773C149.315 21.3622 149.779 21.2812 150.265 21.2344C150.836 21.1747 151.296 21.1193 151.646 21.0682C151.995 21.0128 152.249 20.9318 152.406 20.8253C152.564 20.7187 152.643 20.5611 152.643 20.3523V20.3139C152.643 19.9091 152.515 19.5959 152.259 19.3743C152.008 19.1527 151.65 19.0419 151.185 19.0419C150.695 19.0419 150.305 19.1506 150.016 19.3679C149.726 19.581 149.534 19.8494 149.44 20.1733L146.922 19.9688C147.05 19.3722 147.301 18.8565 147.676 18.4219C148.051 17.983 148.535 17.6463 149.127 17.4119C149.724 17.1733 150.414 17.054 151.198 17.054C151.744 17.054 152.266 17.1179 152.764 17.2457C153.267 17.3736 153.712 17.5717 154.1 17.8402C154.492 18.1087 154.801 18.4538 155.027 18.8757C155.253 19.2933 155.366 19.794 155.366 20.3778V27H152.783V25.6385H152.707C152.549 25.9453 152.338 26.2159 152.074 26.4503C151.81 26.6804 151.492 26.8615 151.121 26.9936C150.751 27.1214 150.322 27.1854 149.837 27.1854ZM150.617 25.3061C151.017 25.3061 151.371 25.2273 151.678 25.0696C151.984 24.9077 152.225 24.6903 152.4 24.4176C152.575 24.1449 152.662 23.8359 152.662 23.4908V22.4489C152.577 22.5043 152.46 22.5554 152.31 22.6023C152.166 22.6449 152.001 22.6854 151.818 22.7237C151.635 22.7578 151.452 22.7898 151.268 22.8196C151.085 22.8452 150.919 22.8686 150.77 22.8899C150.45 22.9368 150.171 23.0114 149.933 23.1136C149.694 23.2159 149.509 23.3544 149.376 23.5291C149.244 23.6996 149.178 23.9126 149.178 24.1683C149.178 24.5391 149.313 24.8224 149.581 25.0185C149.854 25.2102 150.199 25.3061 150.617 25.3061ZM157.81 27.1662C157.388 27.1662 157.026 27.017 156.723 26.7188C156.425 26.4162 156.276 26.054 156.276 25.6321C156.276 25.2145 156.425 24.8565 156.723 24.5582C157.026 24.2599 157.388 24.1108 157.81 24.1108C158.219 24.1108 158.577 24.2599 158.884 24.5582C159.191 24.8565 159.344 25.2145 159.344 25.6321C159.344 25.9134 159.272 26.1712 159.127 26.4055C158.986 26.6357 158.801 26.821 158.571 26.9616C158.341 27.098 158.087 27.1662 157.81 27.1662ZM169.473 17.1818L166.041 27H162.972L159.54 17.1818H162.416L164.455 24.2067H164.558L166.59 17.1818H169.473ZM172.33 21.3239V27H169.607V17.1818H172.202V18.9141H172.317C172.534 18.343 172.898 17.8913 173.41 17.5589C173.921 17.2223 174.541 17.054 175.27 17.054C175.952 17.054 176.546 17.2031 177.053 17.5014C177.56 17.7997 177.955 18.2259 178.236 18.7798C178.517 19.3295 178.658 19.9858 178.658 20.7486V27H175.935V21.2344C175.939 20.6335 175.786 20.1648 175.474 19.8281C175.163 19.4872 174.735 19.3168 174.19 19.3168C173.823 19.3168 173.499 19.3956 173.218 19.5533C172.941 19.7109 172.724 19.9411 172.566 20.2436C172.413 20.5419 172.334 20.902 172.33 21.3239Z" fill="white"/>
<g clip-path="url(#clip0_64_1824)">
<path d="M20 40C31.0457 40 40 31.0457 40 20C40 8.9543 31.0457 0 20 0C8.9543 0 0 8.9543 0 20C0 31.0457 8.9543 40 20 40Z" fill="#04B4FF"/>
<path d="M27.3185 22.4312C26.961 22.4312 26.6258 22.4312 26.2897 22.4312C26.0488 22.4312 25.8233 22.4073 25.6956 22.1542C25.5678 21.901 25.6741 21.6984 25.8199 21.4966C26.6112 20.4044 27.3974 19.3079 28.1879 18.2149C28.5196 17.7564 28.9775 17.7405 29.3195 18.1901C30.1717 19.3097 31.0136 20.4381 31.8598 21.5621C31.9944 21.7391 32.0502 21.9302 31.9456 22.1444C31.841 22.3586 31.6652 22.4338 31.4457 22.4338H30.3038C30.074 23.3374 29.936 24.2216 29.6265 25.0376C28.1613 28.9087 25.4315 31.2709 21.4423 31.8736C17.784 32.4267 14.6899 31.1514 12.2388 28.3034C10.8773 26.7227 10.0954 24.8447 9.84766 22.7392C9.82022 22.502 9.75164 22.4108 9.51501 22.4259C9.1978 22.4471 8.87801 22.4338 8.55994 22.4338C8.32931 22.4338 8.14413 22.3453 8.04553 22.1249C7.94694 21.9046 8.02067 21.7223 8.15013 21.5435C8.95088 20.4337 9.74735 19.3194 10.5507 18.2113C10.879 17.7582 11.3531 17.7511 11.6884 18.1936C12.5311 19.3079 13.3679 20.4266 14.2107 21.5417C14.3453 21.7187 14.4121 21.9072 14.3204 22.1223C14.2287 22.3374 14.034 22.4312 13.806 22.4303H12.6915C12.8262 23.5232 13.1953 24.5714 13.7717 25.4987C14.6617 26.9633 16.0118 28.068 17.5963 28.6282C18.1501 28.8282 18.5394 28.5397 18.5394 27.9343C18.5394 24.3287 18.5411 20.7231 18.5445 17.1174C18.5445 16.9156 18.4819 16.828 18.3019 16.7484C16.5015 15.9518 15.4006 14.0172 15.6347 12.0577C15.8833 9.98317 17.3785 8.36621 19.335 8.0538C21.5186 7.70509 23.6371 9.08398 24.2484 11.2505C24.5601 12.3213 24.4783 13.473 24.0188 14.4854C23.5593 15.4978 22.7543 16.2998 21.7578 16.7377C21.5598 16.8263 21.4869 16.9236 21.4869 17.1502C21.4943 20.7062 21.4963 24.262 21.4929 27.8175C21.4929 28.5813 21.8701 28.8618 22.5543 28.5839C25.1657 27.5219 26.745 25.5642 27.3048 22.7285C27.3144 22.6297 27.319 22.5305 27.3185 22.4312ZM21.474 12.5675C21.4766 12.3686 21.441 12.1711 21.3692 11.9865C21.2974 11.8019 21.1908 11.6338 21.0557 11.492C20.9205 11.3502 20.7595 11.2374 20.5819 11.1603C20.4042 11.0831 20.2136 11.0431 20.0208 11.0426C19.8277 11.0407 19.6361 11.0781 19.4571 11.1528C19.278 11.2274 19.1149 11.3377 18.9771 11.4775C18.8394 11.6172 18.7297 11.7836 18.6542 11.9671C18.5788 12.1507 18.5392 12.3478 18.5376 12.5471C18.538 12.9485 18.6909 13.3337 18.9634 13.62C19.2359 13.9063 19.6064 14.0708 19.9951 14.0782C20.1885 14.0799 20.3802 14.042 20.5594 13.9669C20.7385 13.8917 20.9015 13.7807 21.0389 13.6403C21.1764 13.4999 21.2856 13.3329 21.3602 13.1488C21.4349 12.9646 21.4736 12.7671 21.474 12.5675Z" fill="white"/>
</g>
<defs>
<clipPath id="clip0_64_1824">
<rect width="40" height="40" fill="white"/>
</clipPath>
</defs>
</svg>
